<mxfile host="app.diagrams.net" modified="2023-10-05T18:28:02.774Z" agent="Mozilla/5.0 (Windows NT 10.0; Win64; x64) AppleWebKit/537.36 (KHTML, like Gecko) Chrome/117.0.0.0 Safari/537.36 Edg/117.0.2045.55" etag="dK-XIbm28aP0vUx7FKbF" version="22.0.2" type="device">
  <diagram id="C5RBs43oDa-KdzZeNtuy" name="Page-1">
    <mxGraphModel dx="871" dy="495" grid="1" gridSize="10" guides="1" tooltips="1" connect="1" arrows="1" fold="1" page="1" pageScale="1" pageWidth="827" pageHeight="1169" math="0" shadow="0">
      <root>
        <mxCell id="WIyWlLk6GJQsqaUBKTNV-0" />
        <mxCell id="WIyWlLk6GJQsqaUBKTNV-1" parent="WIyWlLk6GJQsqaUBKTNV-0" />
        <mxCell id="goFC105dPo6CWIgyOq26-1" value="Sí" style="edgeStyle=orthogonalEdgeStyle;rounded=0;orthogonalLoop=1;jettySize=auto;html=1;entryX=0;entryY=0.5;entryDx=0;entryDy=0;" parent="WIyWlLk6GJQsqaUBKTNV-1" edge="1" target="goFC105dPo6CWIgyOq26-4">
          <mxGeometry relative="1" as="geometry">
            <mxPoint x="330" y="130" as="targetPoint" />
            <mxPoint x="300" y="130" as="sourcePoint" />
          </mxGeometry>
        </mxCell>
        <mxCell id="goFC105dPo6CWIgyOq26-9" style="edgeStyle=orthogonalEdgeStyle;rounded=0;orthogonalLoop=1;jettySize=auto;html=1;entryX=0;entryY=0.5;entryDx=0;entryDy=0;" parent="WIyWlLk6GJQsqaUBKTNV-1" source="goFC105dPo6CWIgyOq26-4" edge="1">
          <mxGeometry relative="1" as="geometry">
            <mxPoint x="490" y="130" as="targetPoint" />
          </mxGeometry>
        </mxCell>
        <mxCell id="goFC105dPo6CWIgyOq26-4" value="APRETAR ESPACIO" style="rounded=1;whiteSpace=wrap;html=1;fontSize=12;glass=0;strokeWidth=1;shadow=0;" parent="WIyWlLk6GJQsqaUBKTNV-1" vertex="1">
          <mxGeometry x="350" y="110" width="120" height="40" as="geometry" />
        </mxCell>
        <mxCell id="sWjFgk8aKBnX1M1whwOE-6" style="edgeStyle=orthogonalEdgeStyle;rounded=0;orthogonalLoop=1;jettySize=auto;html=1;entryX=0;entryY=0.5;entryDx=0;entryDy=0;" edge="1" parent="WIyWlLk6GJQsqaUBKTNV-1" source="sWjFgk8aKBnX1M1whwOE-1" target="sWjFgk8aKBnX1M1whwOE-5">
          <mxGeometry relative="1" as="geometry" />
        </mxCell>
        <mxCell id="sWjFgk8aKBnX1M1whwOE-1" value="Siguiente instrucción" style="rounded=1;whiteSpace=wrap;html=1;fontSize=12;glass=0;strokeWidth=1;shadow=0;" vertex="1" parent="WIyWlLk6GJQsqaUBKTNV-1">
          <mxGeometry x="20" y="110" width="100" height="40" as="geometry" />
        </mxCell>
        <mxCell id="sWjFgk8aKBnX1M1whwOE-5" value="¿Instrucción finalizada?" style="rhombus;whiteSpace=wrap;html=1;" vertex="1" parent="WIyWlLk6GJQsqaUBKTNV-1">
          <mxGeometry x="150" y="60" width="150" height="140" as="geometry" />
        </mxCell>
        <mxCell id="sWjFgk8aKBnX1M1whwOE-15" value="No" style="edgeStyle=orthogonalEdgeStyle;rounded=0;orthogonalLoop=1;jettySize=auto;html=1;entryX=0.5;entryY=1;entryDx=0;entryDy=0;exitX=0.5;exitY=1;exitDx=0;exitDy=0;" edge="1" parent="WIyWlLk6GJQsqaUBKTNV-1" source="sWjFgk8aKBnX1M1whwOE-7">
          <mxGeometry x="-0.937" relative="1" as="geometry">
            <mxPoint x="60" y="150" as="targetPoint" />
            <mxPoint x="555" y="200" as="sourcePoint" />
            <Array as="points">
              <mxPoint x="565" y="240" />
              <mxPoint x="60" y="240" />
            </Array>
            <mxPoint as="offset" />
          </mxGeometry>
        </mxCell>
        <mxCell id="sWjFgk8aKBnX1M1whwOE-20" value="Sí" style="edgeStyle=orthogonalEdgeStyle;rounded=0;orthogonalLoop=1;jettySize=auto;html=1;entryX=0;entryY=0.5;entryDx=0;entryDy=0;" edge="1" parent="WIyWlLk6GJQsqaUBKTNV-1" source="sWjFgk8aKBnX1M1whwOE-7" target="sWjFgk8aKBnX1M1whwOE-18">
          <mxGeometry relative="1" as="geometry" />
        </mxCell>
        <mxCell id="sWjFgk8aKBnX1M1whwOE-7" value="¿Instrucción final?" style="rhombus;whiteSpace=wrap;html=1;" vertex="1" parent="WIyWlLk6GJQsqaUBKTNV-1">
          <mxGeometry x="490" y="60" width="150" height="140" as="geometry" />
        </mxCell>
        <mxCell id="sWjFgk8aKBnX1M1whwOE-13" value="" style="shape=umlActor;html=1;verticalLabelPosition=bottom;verticalAlign=top;align=center;" vertex="1" parent="WIyWlLk6GJQsqaUBKTNV-1">
          <mxGeometry x="360" y="14.5" width="30" height="60" as="geometry" />
        </mxCell>
        <mxCell id="sWjFgk8aKBnX1M1whwOE-18" value="Nivel ganado" style="rounded=1;whiteSpace=wrap;html=1;fontSize=12;glass=0;strokeWidth=1;shadow=0;" vertex="1" parent="WIyWlLk6GJQsqaUBKTNV-1">
          <mxGeometry x="680" y="110" width="90" height="40" as="geometry" />
        </mxCell>
        <mxCell id="sWjFgk8aKBnX1M1whwOE-24" value="" style="sketch=0;pointerEvents=1;shadow=0;dashed=0;html=1;strokeColor=none;fillColor=#434445;aspect=fixed;labelPosition=center;verticalLabelPosition=bottom;verticalAlign=top;align=center;outlineConnect=0;shape=mxgraph.vvd.keyboard;" vertex="1" parent="WIyWlLk6GJQsqaUBKTNV-1">
          <mxGeometry x="400" y="70" width="56.34" height="40" as="geometry" />
        </mxCell>
        <mxCell id="sWjFgk8aKBnX1M1whwOE-31" style="edgeStyle=orthogonalEdgeStyle;rounded=0;orthogonalLoop=1;jettySize=auto;html=1;entryX=0.202;entryY=0.071;entryDx=0;entryDy=0;entryPerimeter=0;" edge="1" parent="WIyWlLk6GJQsqaUBKTNV-1" source="sWjFgk8aKBnX1M1whwOE-13" target="goFC105dPo6CWIgyOq26-4">
          <mxGeometry relative="1" as="geometry" />
        </mxCell>
      </root>
    </mxGraphModel>
  </diagram>
</mxfile>
